<?xml version="1.0" encoding="UTF-8" standalone="no"?>
<!-- Created with Inkscape (http://www.inkscape.org/) -->

<svg
   width="210.60834mm"
   height="221.19167mm"
   viewBox="0 0 210.60834 221.19167"
   version="1.1"
   id="svg1463"
   xml:space="preserve"
   inkscape:version="1.2.1 (ef4d3fba62, 2022-07-19, custom)"
   sodipodi:docname="home.svg"
   xmlns:inkscape="http://www.inkscape.org/namespaces/inkscape"
   xmlns:sodipodi="http://sodipodi.sourceforge.net/DTD/sodipodi-0.dtd"
   xmlns="http://www.w3.org/2000/svg"
   xmlns:svg="http://www.w3.org/2000/svg"><sodipodi:namedview
     id="namedview1465"
     pagecolor="#ffffff"
     bordercolor="#666666"
     borderopacity="1.0"
     inkscape:showpageshadow="2"
     inkscape:pageopacity="0.0"
     inkscape:pagecheckerboard="0"
     inkscape:deskcolor="#d1d1d1"
     inkscape:document-units="mm"
     showgrid="false"
     inkscape:zoom="0.70199214"
     inkscape:cx="397.44035"
     inkscape:cy="470.80299"
     inkscape:window-width="1920"
     inkscape:window-height="1016"
     inkscape:window-x="0"
     inkscape:window-y="0"
     inkscape:window-maximized="1"
     inkscape:current-layer="layer1" /><defs
     id="defs1460" /><g
     inkscape:label="Capa 1"
     inkscape:groupmode="layer"
     id="layer1"
     transform="translate(93.997063,105.69608)"><g
       id="g1495"><path
         style="fill:#433d3b;stroke-width:0.264583"
         d="m 1.3499892,115.05205 c 0.2694808,-0.48016 -1.7325817,-0.61326 -10.8126745,-0.71883 -8.2822387,-0.0963 -8.5476617,-0.12192 -12.9944317,-1.2547 -0.598498,-0.15247 -1.570133,-0.29607 -2.15919,-0.31913 -0.589058,-0.0231 -1.051875,-0.15054 -1.028486,-0.28329 0.02339,-0.13275 -0.374195,-0.33399 -0.883518,-0.4472 -0.509323,-0.11321 -1.964727,-0.72831 -3.234232,-1.36688 -1.388475,-0.69842 -2.355334,-1.04735 -2.426507,-0.87572 -0.06508,0.15693 -0.127717,0.077 -0.139206,-0.17769 -0.01812,-0.4019 -0.476885,-0.5999 -1.145368,-0.49435 -0.10914,0.0172 -0.198437,-0.0739 -0.198437,-0.2024 0,-0.12854 -0.267891,-0.32089 -0.595313,-0.42742 -0.327421,-0.10654 -0.654843,-0.21603 -0.727604,-0.24332 -1.324086,-0.4965 -4.485627,-2.242 -5.221063,-2.88256 -0.532426,-0.46375 -0.876355,-0.66458 -0.764288,-0.4463 0.112067,0.21828 0.01632,0.16576 -0.212736,-0.11672 -0.229073,-0.28247 -0.416496,-0.42563 -0.416496,-0.31813 0,0.1075 -0.588225,-0.39276 -1.307169,-1.11171 -0.718942,-0.71894 -1.373786,-1.24055 -1.455208,-1.15912 -0.08142,0.0814 -0.14804,-0.0574 -0.14804,-0.30855 0,-0.25112 -0.110138,-0.38852 -0.244753,-0.30532 -0.241657,0.14935 -2.129756,-1.653874 -2.134203,-2.038266 -0.0013,-0.109141 -0.168151,-0.198438 -0.370861,-0.198438 -0.202714,0 -0.432547,-0.166727 -0.510744,-0.370504 -0.0782,-0.203774 -0.835075,-0.826476 -1.681954,-1.383778 -0.846876,-0.557305 -1.579464,-1.104953 -1.627971,-1.216999 -0.04851,-0.112046 -0.196299,-0.203719 -0.328429,-0.203719 -0.132128,0 -0.568691,-0.334502 -0.970138,-0.743336 -0.401449,-0.408837 -1.146624,-1.028176 -1.655947,-1.376315 -0.509323,-0.348139 -0.985573,-0.70454 -1.058334,-0.792004 -0.383476,-0.460973 -2.18749,-1.659101 -1.99004,-1.321678 0.127731,0.218281 -0.430866,-0.241528 -1.241329,-1.0218 -0.810464,-0.780269 -1.519069,-1.375582 -1.574676,-1.322916 -0.05561,0.05267 -0.615842,-0.380492 -1.244963,-0.962576 -0.629118,-0.582083 -1.21113,-1.058333 -1.293357,-1.058333 -0.28053,0 -3.379719,-3.174331 -3.293584,-3.373438 0.04721,-0.10914 -0.04089,-0.198437 -0.195794,-0.198437 -0.349332,0 -6.249057,-5.932964 -6.468576,-6.50502 -0.08777,-0.228719 -0.606197,-1.07147 -1.152067,-1.872779 -1.815519,-2.665095 -2.670381,-4.168717 -2.856187,-5.023765 -0.03642,-0.167579 -0.376122,-0.760765 -0.754903,-1.318191 -0.37878,-0.557425 -0.688691,-1.137973 -0.688691,-1.290106 0,-0.152133 -0.359785,-0.970058 -0.799523,-1.817611 -0.439737,-0.84755 -0.833283,-1.737238 -0.874546,-1.977078 -0.04126,-0.239842 -0.277989,-0.819433 -0.526057,-1.287981 -0.248069,-0.468551 -0.43077,-0.944801 -0.406003,-1.058333 0.08516,-0.39038 -1.012329,-2.452899 -1.203492,-2.261738 -0.105218,0.10522 -0.134159,-0.123841 -0.06431,-0.509016 0.06985,-0.385178 -0.03819,-0.918279 -0.24008,-1.184667 -0.201891,-0.266387 -0.37086,-0.74236 -0.375488,-1.057716 -0.0046,-0.31536 -0.257222,-1.148797 -0.561319,-1.852084 -0.304097,-0.703289 -0.598964,-1.508082 -0.65526,-1.78843 -0.0563,-0.280344 -0.234377,-0.591312 -0.395736,-0.691038 -0.161359,-0.09972 -0.274617,-0.260586 -0.251684,-0.357468 0.06395,-0.270153 -0.758906,-2.517807 -1.47333,-4.024456 -0.35191,-0.742146 -0.639836,-1.461111 -0.639836,-1.597702 0,-0.136594 -0.238125,-0.715418 -0.529167,-1.28628 -0.291041,-0.570862 -0.529166,-1.250879 -0.529166,-1.511152 0,-0.260273 -0.09042,-0.473223 -0.200939,-0.473223 -0.110516,0 -0.357431,-0.250584 -0.5487,-0.556853 -0.191268,-0.306271 -0.219908,-0.477837 -0.06364,-0.381262 0.156264,0.09658 0.284116,0.04951 0.284116,-0.104603 0,-0.154109 -0.148828,-0.280199 -0.330729,-0.280199 -0.181901,0 -0.348508,-0.26789 -0.370237,-0.595312 -0.04153,-0.625719 -0.950886,-3.477504 -1.539731,-4.828646 -0.378684,-0.868913 -0.655246,-1.757783 -1.358315,-4.365625 -0.25501,-0.945886 -0.531819,-1.779323 -0.615133,-1.852084 -0.08331,-0.07276 -0.165543,-0.787135 -0.18273,-1.5875 -0.01719,-0.800364 -0.108451,-2.348177 -0.202808,-3.439583 -0.213312,-2.467324 -0.499767,-8.889839 -0.53399,-11.972396 -0.01414,-1.273307 -0.09663,-2.315104 -0.183317,-2.315104 -0.21194,0 -0.332571,-2.400586 -0.302655,-6.0229012 0.01455,-1.7617547 -0.07531,-2.9184416 -0.21978,-2.82915 -0.136092,0.084108 -0.124815,-0.1634702 0.02545,-0.5586889 0.148411,-0.3903504 0.269515,-1.08176482 0.269119,-1.5364751 -9.13e-4,-1.0462234 0.418749,-5.1105647 0.618092,-5.9861186 0.08283,-0.3638021 0.211363,-1.0781771 0.285629,-1.5875001 0.07427,-0.5093229 0.237191,-1.3450067 0.362053,-1.857076 0.124863,-0.5120667 0.196689,-1.1377141 0.159614,-1.3903221 -0.03708,-0.252608 0.0412,-0.392165 0.173947,-0.310123 0.132746,0.08204 0.241357,-0.157705 0.241357,-0.532771 0,-0.375065 0.248724,-1.60248 0.55272,-2.727592 0.303996,-1.125111 0.592044,-2.239624 0.640106,-2.47669 0.04806,-0.23707 0.275589,-0.985372 0.505614,-1.662893 0.230025,-0.677522 0.418227,-1.577859 0.418227,-2.000748 0,-0.422889 0.111052,-0.837523 0.246783,-0.921409 0.13573,-0.08389 0.386759,-0.835054 0.557842,-1.669261 0.171082,-0.834208 0.391952,-1.635803 0.49082,-1.781323 0.09887,-0.145521 0.215268,-0.621771 0.258665,-1.058334 0.0434,-0.436562 0.187726,-0.906859 0.32073,-1.045104 0.133005,-0.138245 0.241827,-0.64426 0.241827,-1.124479 0,-0.48885 0.135855,-0.873125 0.30868,-0.873125 0.169774,0 0.234054,-0.07463 0.142844,-0.165836 -0.09121,-0.09121 0.01042,-0.506682 0.225847,-0.923271 0.215426,-0.416587 0.379532,-0.788445 0.364681,-0.82635 -0.07654,-0.195357 0.388912,-1.700958 0.614327,-1.987147 0.143274,-0.181901 0.191521,-0.33073 0.107215,-0.33073 -0.08431,0 0.564249,-1.38544 1.441231,-3.078755 1.492326,-2.88145 3.153467,-5.365094 5.002795,-7.4799 0.433517,-0.495753 0.788213,-1.140675 0.788213,-1.433161 0,-0.292486 0.07277,-0.459023 0.161718,-0.370078 0.160955,0.160957 1.422993,-1.182989 1.486799,-1.583291 0.01841,-0.115511 0.161044,-0.343804 0.316959,-0.507317 0.800839,-0.839854 2.400149,-2.836661 2.400149,-2.996689 0,-0.10087 0.200884,-0.384281 0.446409,-0.629807 0.245525,-0.245525 1.096481,-1.368112 1.891014,-2.494642 0.794534,-1.12653 1.784275,-2.411849 2.199425,-2.856267 0.415151,-0.444415 0.983977,-1.218322 1.264059,-1.719792 0.280082,-0.501467 0.579376,-0.971291 0.665096,-1.044051 0.08572,-0.07276 0.689466,-0.787135 1.341653,-1.5875 0.65219,-0.800365 1.327362,-1.60474 1.500386,-1.787504 0.173022,-0.182763 0.386559,-0.559064 0.474528,-0.836226 0.08797,-0.277162 0.458269,-0.699402 0.822891,-0.938313 0.364622,-0.238911 0.773753,-0.72581 0.909175,-1.082003 0.135424,-0.35619 0.427767,-0.647621 0.64965,-0.647621 0.221882,0 0.40604,-0.0893 0.409239,-0.198437 0.0032,-0.109141 0.530664,-0.550688 1.172143,-0.981215 0.641477,-0.430525 1.108083,-0.87701 1.0369,-0.992188 -0.07118,-0.115176 0.03775,-0.20941 0.242062,-0.20941 0.204314,0 0.586981,-0.238125 0.850371,-0.529166 0.26339,-0.291042 0.569105,-0.529167 0.67937,-0.529167 0.376907,0 2.887364,-1.768928 2.757496,-1.942997 -0.07127,-0.09552 -0.05419,-0.118126 0.03795,-0.05024 0.175085,0.129001 2.545299,-1.431716 2.698792,-1.777074 0.04851,-0.10914 0.229741,-0.198437 0.402738,-0.198437 0.172998,0 0.740212,-0.350872 1.260473,-0.779717 0.520263,-0.428842 1.493091,-1.070641 2.161841,-1.42622 0.668751,-0.355579 1.143334,-0.719082 1.05463,-0.807784 -0.0887,-0.0887 -0.0065,-0.161279 0.18271,-0.161279 0.490033,0 6.701939,-3.18019 6.843999,-3.503791 0.04858,-0.11067 0.552437,-0.275432 1.119672,-0.366136 0.619302,-0.09903 0.963062,-0.275383 0.860448,-0.441416 -0.106547,-0.172396 1.01e-4,-0.210886 0.283255,-0.102229 0.249778,0.09585 0.719802,2.03e-4 1.044499,-0.212545 0.324694,-0.212749 0.842624,-0.425315 1.150956,-0.47237 0.308329,-0.04706 0.731996,-0.227799 0.94148,-0.401655 0.209484,-0.173855 0.456343,-0.240636 0.548576,-0.148401 0.35323,0.353228 1.057741,-0.629844 2.385434,-3.328622 0.757152,-1.539055 1.791173,-3.441748 2.297826,-4.22821 0.506654,-0.786461 0.8815,-1.560033 0.832994,-1.719048 -0.04851,-0.159016 -0.0013,-0.202324 0.104682,-0.09624 0.106085,0.106083 1.309481,-0.874598 2.674213,-2.179292 1.364734,-1.304694 2.86544,-2.569688 3.334901,-2.811099 0.46946,-0.241411 1.508408,-0.933488 2.308772,-1.537949 0.800365,-0.60446 2.586303,-1.674453 3.96875,-2.377753 1.382448,-0.7033 2.601016,-1.4118 2.707929,-1.57443 0.140904,-0.21434 0.195501,-0.21102 0.198437,0.0121 0.004,0.30802 0.660313,0.16823 2.385301,-0.50806 0.789647,-0.30959 3.5812311,-1.15065 5.4239588,-1.63416 0.7276042,-0.19091 1.8462864,-0.36209 2.4859589,-0.3804 0.63967,-0.0183 1.2945137,-0.12653 1.4552084,-0.24048 0.4411557,-0.31285 9.3179004,-0.20768 13.5213329,0.1602 4.234858,0.37062 5.820834,0.52909 5.820834,0.58162 0,0.0202 0.297656,0.0655 0.661458,0.10058 0.363802,0.0351 1.554427,0.15972 2.645834,0.2769 1.091406,0.11718 2.341562,0.24572 2.778125,0.28563 0.436562,0.0399 1.717397,0.20977 2.846297,0.37743 1.128901,0.16767 2.189094,0.22046 2.355985,0.11731 0.187278,-0.11574 0.231167,-0.0706 0.11465,0.11793 -0.124132,0.20085 0.06575,0.31775 0.554431,0.34132 0.408771,0.0197 1.21947,0.0577 1.801554,0.0844 0.582083,0.0267 1.297725,0.17812 1.590315,0.33644 0.292592,0.15832 0.858139,0.22551 1.256771,0.14931 0.403632,-0.0772 0.724789,-0.02 0.724789,0.12908 0,0.1472 0.446484,0.32734 0.992187,0.40031 2.049624,0.27406 2.690085,0.43586 4.202028,1.06159 0.853964,0.35341 1.893221,0.72361 2.309461,0.822651 0.41624,0.09904 1.249677,0.39854 1.852083,0.665553 1.780961,0.789401 2.934034,1.207331 3.145804,1.140194 0.10914,-0.0346 0.198437,0.05615 0.198437,0.201674 0,0.145521 0.178594,0.264583 0.396875,0.264583 0.218281,0 0.398698,0.20836 0.400926,0.463021 0.003,0.344433 0.05982,0.375108 0.221792,0.119768 0.173916,-0.274165 0.286129,-0.260852 0.557514,0.06615 0.186873,0.225169 0.47402,0.413122 0.638101,0.417673 0.489501,0.01358 2.610983,1.12957 3.630785,1.909955 0.522957,0.400182 1.088422,0.727604 1.256586,0.727604 0.168166,0 0.305755,0.09423 0.305755,0.209399 0,0.115169 1.041797,0.561653 2.315104,0.992187 1.273307,0.430534 2.387947,0.882255 2.476976,1.003825 0.08903,0.121569 0.24103,0.200783 0.337778,0.176029 0.09675,-0.02475 0.797811,0.14109 1.55792,0.368542 1.27641,0.381947 4.113109,0.975258 4.887743,1.022296 0.181901,0.01105 0.330729,0.09398 0.330729,0.184291 0,0.09031 0.368411,0.192279 0.818692,0.226589 0.450279,0.03431 1.134888,0.221893 1.521355,0.416852 0.386463,0.194958 0.829119,0.308809 0.983681,0.253001 0.154559,-0.05581 0.84655,0.199229 1.537758,0.566748 0.691208,0.367518 1.169361,0.518812 1.062564,0.336207 -0.106796,-0.182604 0.04431,-0.123388 0.335796,0.131591 0.291484,0.254979 0.601708,0.391864 0.689383,0.304188 0.143563,-0.143563 2.468721,0.961923 7.322719,3.481552 1.736752,0.901518 3.358687,1.97713 4.302208,2.853077 0.289007,0.268307 0.938744,0.768289 1.443863,1.111072 0.505118,0.342782 1.82863,1.47634 2.941142,2.519021 1.11251,1.042678 2.308564,2.083054 2.657896,2.311945 0.903341,0.591891 2.164194,1.893144 2.164194,2.233538 0,0.158581 0.06973,0.218604 0.154943,0.133385 0.261818,-0.261816 1.456364,0.945994 1.310793,1.325348 -0.07522,0.196011 -0.01905,0.283644 0.124794,0.194736 0.143853,-0.0889 0.261553,-0.03556 0.261553,0.118549 0,0.154109 0.103397,0.280199 0.22977,0.280199 0.323919,0 2.800302,2.468878 2.730833,2.722557 -0.03148,0.114957 0.300983,0.591207 0.738813,1.058334 0.43783,0.467124 0.79661,0.998146 0.79728,1.180047 7.9e-4,0.181901 0.0982,0.330729 0.21672,0.330729 0.2707,0 1.372,2.037691 1.372,2.538545 0,0.204531 0.09,0.371872 0.2,0.371872 0.11,0 0.36559,0.386953 0.56798,0.859895 0.2024,0.472943 0.58865,1.328743 0.85834,1.901781 0.26969,0.573037 0.49035,1.205941 0.49035,1.406456 0,0.200514 0.14287,0.624636 0.31748,0.942491 0.17462,0.317854 0.34681,0.875575 0.38264,1.239377 0.15108,1.533596 0.39684,2.771291 0.6017,3.030233 0.12056,0.152381 0.28165,0.634246 0.35797,1.070808 0.22867,1.307944 0.40404,1.920447 0.71762,2.506367 0.16376,0.30598 0.22381,0.819724 0.13346,1.141648 -0.11596,0.41316 -0.0907,0.479038 0.086,0.22398 0.17573,-0.25369 0.25486,-0.03115 0.2656,0.74698 0.008,0.609573 0.15575,1.277559 0.32742,1.484407 0.17167,0.206852 0.25256,0.603891 0.17975,0.882312 -0.0728,0.278421 0.13823,0.982646 0.46899,1.564944 0.44772,0.788239 0.52483,1.135258 0.3018,1.358292 -0.22303,0.22303 -0.22263,0.347448 0.002,0.486984 0.16563,0.103081 0.43576,0.688409 0.60029,1.300728 0.16454,0.61232 0.41693,1.186093 0.56087,1.275054 0.14394,0.08896 0.19829,0.264353 0.12078,0.389763 -0.0775,0.12541 -0.018,0.304004 0.1323,0.396875 0.15026,0.09287 0.20484,0.279482 0.12128,0.414692 -0.0836,0.135213 0.0336,0.510664 0.26026,0.83434 0.22671,0.323678 0.41221,0.807162 0.41221,1.074412 0,0.26725 0.11906,0.412327 0.26458,0.322389 0.14874,-0.09192 0.26458,0.118745 0.26458,0.481156 0,0.354571 0.17729,0.791808 0.39396,0.971634 0.21668,0.17983 0.32872,0.432533 0.24897,0.561565 -0.0797,0.129032 -0.006,0.234604 0.16351,0.234604 0.16968,0 0.23998,0.178594 0.15621,0.396875 -0.0899,0.234193 -0.003,0.396875 0.21151,0.396875 0.23354,0 0.31425,0.189473 0.22542,0.529166 -0.0761,0.291042 -0.0345,0.529167 0.0925,0.529167 0.12697,0 0.3938,0.386953 0.59297,0.859896 0.19916,0.472943 0.52564,1.205119 0.7255,1.627058 0.4941,1.04313 1.46189,6.829938 1.44254,8.625546 -0.009,0.800365 -0.15201,2.169584 -0.31863,3.042709 -0.16662,0.873125 -0.32552,1.944687 -0.35311,2.38125 -0.0276,0.436562 -0.19373,1.297212 -0.3692,1.912556 -0.17548,0.615342 -0.31442,1.50831 -0.30876,1.984375 0.006,0.476062 -0.0452,1.282288 -0.11294,1.7916104 -0.0678,0.509323 -0.14715,1.4272658 -0.1764,2.0398714 -0.0292,0.6126084 -0.13268,1.0647019 -0.22984,1.0046547 -0.0972,-0.06005 -0.15468,0.5400543 -0.12782,1.3335635 0.0269,0.7935093 -0.0234,1.4427439 -0.11158,1.4427439 -0.0882,0 -0.16842,0.3274218 -0.17821,0.7276041 -0.0264,1.0787063 -0.39519,3.0704738 -0.62464,3.3734376 -0.11021,0.14552083 -0.18468,0.62177084 -0.16548,1.0583333 0.0192,0.4365626 -0.12019,1.1807032 -0.30974,1.6536459 -0.18956,0.4729427 -0.29007,0.8598959 -0.22337,0.8598959 0.0667,0 -0.17188,0.662887 -0.53018,1.4730809 -0.35831,0.8101965 -0.58286,1.5841028 -0.499,1.7197917 0.0839,0.1356916 0.0165,0.2467107 -0.14977,0.2467107 -0.16623,0 -0.24826,0.1488282 -0.18228,0.3307292 0.066,0.1819011 -0.0431,0.7322238 -0.24253,1.2229359 -0.19938,0.4907148 -0.3625,1.2202769 -0.3625,1.6212499 0,0.400974 -0.16573,0.866582 -0.36829,1.034688 -0.4468,0.370814 -0.73553,1.346647 -0.39845,1.346647 0.14095,0 0.14687,0.193387 0.0142,0.463021 -0.92658,1.882555 -1.23179,2.568194 -1.23179,2.767089 0,0.125825 -0.1786,0.34167 -0.39688,0.479655 -0.35278,0.223007 -0.35278,0.252225 0,0.26298 0.32415,0.0099 0.31582,0.0594 -0.0455,0.270211 -0.24329,0.141963 -0.5224,0.622613 -0.62025,1.06811 -0.0978,0.445498 -0.34454,1.129398 -0.54821,1.519777 -0.20367,0.39038 -0.37104,0.865638 -0.37194,1.056127 -7.9e-4,0.19049 -0.12866,0.267838 -0.28391,0.171884 -0.15525,-0.09595 -0.25604,-0.01368 -0.22397,0.182824 0.0565,0.346401 -0.26997,1.204926 -1.38748,3.648292 -0.29541,0.645891 -0.57716,1.382303 -0.62611,1.636475 -0.0489,0.254172 -0.22057,0.707983 -0.38139,1.008467 -0.16081,0.300488 -0.1989,0.548161 -0.0846,0.550389 0.11426,0.0021 0.0398,0.110353 -0.16541,0.240274 -0.20523,0.129921 -0.38947,0.457615 -0.4094,0.728204 -0.0199,0.27059 -0.11473,0.618972 -0.21065,0.774182 -0.0959,0.155207 -0.24371,0.675529 -0.3284,1.156269 -0.0847,0.480737 -0.27265,1.095795 -0.41769,1.366795 -0.14503,0.270999 -0.1854,0.492725 -0.0897,0.492725 0.0957,0 0.0175,0.188527 -0.1737,0.41895 -0.19123,0.23042 -0.37474,0.617373 -0.40779,0.859895 -0.0331,0.24252 -0.26158,1.155322 -0.50785,2.028447 -0.24627,0.873125 -0.46952,1.724316 -0.4961,1.891538 -0.0266,0.167219 -0.18238,0.465542 -0.3462,0.662938 -0.350476,0.42229 -0.743398,1.800727 -0.648256,2.27417 0.03655,0.181901 -0.04294,0.330729 -0.176647,0.330729 -0.13371,0 -0.243109,0.270751 -0.243109,0.601668 0,0.330917 -0.669727,1.956234 -1.488282,3.611817 -0.818554,1.65558 -1.488281,3.170766 -1.488281,3.367082 0,0.196313 -0.119063,0.356933 -0.264583,0.356933 -0.145521,0 -0.264584,0.223547 -0.264584,0.496771 0,0.273222 -0.177284,0.643901 -0.393962,0.823728 -0.216678,0.179829 -0.328715,0.432533 -0.248967,0.561565 0.07974,0.129032 0.04182,0.234603 -0.08429,0.234603 -0.126103,0 -0.449331,0.506016 -0.718285,1.124479 -0.268952,0.618464 -0.79788,1.497518 -1.175396,1.953456 -1.345597,1.625119 -2.008306,2.581302 -1.940708,2.80013 0.03773,0.122143 -0.111099,0.291032 -0.330729,0.375312 -0.219634,0.08428 -0.399331,0.266557 -0.399331,0.405056 0,0.21024 -1.036322,1.421955 -2.579687,3.016284 -0.181901,0.18791 -0.330729,0.390433 -0.330729,0.450054 0,0.05962 -0.773907,0.925348 -1.719792,1.923844 -0.945886,0.998492 -1.719792,1.905304 -1.719792,2.015138 0,0.109831 -0.26789,0.473871 -0.595312,0.808979 -0.327422,0.335106 -0.9525,1.072944 -1.389063,1.639642 -0.436562,0.566697 -1.359297,1.714349 -2.050521,2.550337 -0.691224,0.835988 -1.256771,1.710904 -1.256771,1.944259 0,0.233354 -0.119062,0.42428 -0.264583,0.42428 -0.145521,0 -0.264583,0.164016 -0.264583,0.36448 0,0.200461 -0.184013,0.517194 -0.408917,0.703847 -0.224903,0.186653 -0.345328,0.505071 -0.267612,0.707596 0.07772,0.202526 0.04515,0.308804 -0.07237,0.236175 -0.27251,-0.168415 -2.955282,5.397699 -2.955282,6.131489 0,0.302427 -0.177099,0.726967 -0.393554,0.943422 -0.536337,0.536337 -1.996078,3.382066 -1.623947,3.165843 0.16374,-0.09514 0.103434,0.05585 -0.134016,0.335523 -0.237451,0.279676 -0.513363,0.776391 -0.613143,1.103813 -0.09978,0.327422 -0.270531,0.595313 -0.37945,0.595313 -0.108918,0 -0.465698,0.47625 -0.792847,1.058333 -0.32715,0.582083 -0.50945,1.058333 -0.405115,1.058333 0.104339,0 -0.08485,0.238125 -0.420428,0.529167 -0.388117,0.336613 -0.476041,0.529167 -0.241625,0.529167 0.233608,0 0.12736,0.230386 -0.290246,0.629345 -1.203422,1.1497 -1.577649,1.708248 -1.237366,1.846827 0.195556,0.07964 0.164301,0.136797 -0.08285,0.151508 -0.218281,0.01299 -0.635,0.32739 -0.926042,0.698661 -0.743416,0.948346 -1.716035,1.833034 -2.015225,1.833034 -0.139169,0 -0.33799,0.119062 -0.44182,0.264583 -0.103833,0.145521 -0.605507,0.492712 -1.11483,0.771533 -0.509323,0.278823 -1.317138,0.84437 -1.795145,1.256771 -0.478004,0.412403 -1.043551,0.749821 -1.256771,0.749821 -0.595791,0 -0.685072,0.03344 -2.232456,0.836277 -0.796351,0.413173 -1.600023,0.751223 -1.785938,0.751223 -0.185912,0 -0.338024,0.08999 -0.338024,0.199991 0,0.22232 -2.42003,1.38751 -2.881783,1.38751 -0.161269,0 -0.293217,0.11907 -0.293217,0.26459 0,0.14552 -0.139893,0.26458 -0.310875,0.26458 -0.424987,0 -4.674954,2.10045 -4.861856,2.40286 -0.08259,0.13363 -0.418039,0.24297 -0.74544,0.24297 -0.3274,0 -0.826389,0.17481 -1.108863,0.38846 -0.282475,0.21366 -0.811247,0.39304 -1.175049,0.39862 -0.363802,0.006 -1.018646,0.24672 -1.455209,0.53584 -0.857467,0.56788 -1.31813,0.68495 -1.061537,0.26977 0.08818,-0.14267 -0.172688,-0.0954 -0.579697,0.10501 -0.407009,0.20043 -1.632985,0.57384 -2.724391,0.82979 -1.917427,0.44967 -2.395588,0.53868 -4.101042,0.7634 -0.436562,0.0575 -1.197655,0.23012 -1.691314,0.38356 -0.493662,0.15343 -1.011031,0.20885 -1.14971,0.12314 -0.138676,-0.0857 -0.50868,-0.0359 -0.822225,0.11077 -0.792879,0.37079 -3.35053,0.88394 -3.609139,0.72411 -0.117239,-0.0725 -0.552976,0.0455 -0.968303,0.2621 -0.415327,0.21661 -1.016006,0.39457 -1.334839,0.39547 -0.318834,7.9e-4 -0.646374,0.10951 -0.727869,0.24137 -0.08149,0.13186 -0.37274,0.18102 -0.647213,0.10925 -0.274473,-0.0718 -0.579038,-10e-4 -0.676809,0.15713 -0.09777,0.1582 -0.457145,0.28763 -0.798608,0.28763 -0.531453,0 -2.650932,0.91946 -3.052096,1.32404 -0.236993,0.23902 -3.292951,1.1894 -3.836459,1.19312 -0.291041,0.002 -0.677994,0.0983 -0.859895,0.21405 -0.181901,0.11574 -0.439624,0.14314 -0.572715,0.0609 -0.133091,-0.0823 -0.281919,-0.0308 -0.330729,0.1144 -0.04881,0.14517 -0.445931,0.28657 -0.882494,0.31422 -0.436562,0.0276 -0.936892,0.15759 -1.111845,0.28877 -0.445291,0.33388 -1.36498,0.44997 -4.7089885,0.59438 -1.6007292,0.0691 -3.0592449,0.18233 -3.2411459,0.25157 -0.1819011,0.0692 -0.3307292,0.0105 -0.3307292,-0.1304 0,-0.36995 -1.1534193,-0.31537 -1.5733978,0.0745 -0.2371698,0.22014 -0.2979076,0.22665 -0.1816364,0.0195 z m 10.1301868,-4.69014 c 2.438763,-0.6304 3.576823,-1.03527 6.089661,-2.16644 0.461328,-0.20767 1.235234,-0.45279 1.719792,-0.54471 0.48456,-0.0919 1.000082,-0.24799 1.145603,-0.34683 0.145521,-0.0988 0.800365,-0.33401 1.455209,-0.52262 0.654843,-0.18861 1.488281,-0.43805 1.852083,-0.55432 0.363802,-0.11626 2.030677,-0.40603 3.704167,-0.64394 1.673489,-0.2379 3.473241,-0.54568 3.999447,-0.68396 0.526206,-0.13828 1.252641,-0.25142 1.6143,-0.25142 0.763921,0 6.548638,-1.438 7.263723,-1.80567 0.266194,-0.13686 1.198364,-0.52059 2.071489,-0.85274 1.688478,-0.64231 9.219639,-4.425234 13.979848,-7.022122 3.13322,-1.709301 6.112526,-3.987634 6.400342,-4.894467 0.143193,-0.451157 0.233119,-0.496824 0.414475,-0.210478 0.173123,0.273346 0.23263,0.280564 0.23566,0.02858 0.0033,-0.274222 0.942101,-1.820537 2.053666,-3.382611 0.109638,-0.154072 0.422987,-0.689853 0.696333,-1.190625 0.273344,-0.500769 0.764855,-1.386739 1.092245,-1.968822 1.133976,-2.016139 1.718056,-3.168185 1.718056,-3.388704 0,-0.121846 0.646774,-1.552359 1.437273,-3.178919 0.790501,-1.626558 1.567394,-3.255034 1.726433,-3.618836 0.976492,-2.233755 5.010099,-8.116054 7.07577,-10.31875 0.477639,-0.509323 0.869469,-1.015339 0.870731,-1.124479 0.0013,-0.109141 0.236365,-0.432509 0.522454,-0.718598 0.672034,-0.672034 3.636897,-4.103886 4.579379,-5.300673 0.401101,-0.509323 0.876306,-1.098238 1.056011,-1.308701 1.211043,-1.418301 3.149917,-4.202634 3.275817,-4.704257 0.08305,-0.330893 0.243268,-0.601626 0.356042,-0.601626 0.205004,0 0.613968,-1.014497 0.559956,-1.389062 -0.01574,-0.109141 0.06754,-0.198438 0.185049,-0.198438 0.117518,0 0.420696,-0.506015 0.673735,-1.124479 0.253037,-0.618463 0.854406,-1.957917 1.336374,-2.976562 0.902457,-1.907353 4.452038,-12.062704 4.358981,-12.471038 -0.06805,-0.29859 0.200809,-1.04992 0.816788,-2.282553 0.273547,-0.547391 0.357663,-0.911487 0.186928,-0.809106 -0.23068,0.138329 -0.235837,0.08814 -0.02008,-0.195368 0.159694,-0.209836 0.491553,-1.01277 0.737465,-1.7843 0.245909,-0.771528 0.740328,-2.043822 1.098706,-2.827317 0.358373,-0.783494 0.651593,-1.496663 0.651593,-1.584814 0,-0.08815 0.38086,-0.958988 0.84635,-1.935184 0.46549,-0.976198 0.86273,-1.834435 0.88274,-1.907196 0.0811,-0.294793 0.50282,-1.280139 1.24559,-2.910417 1.06125,-2.329333 1.32252,-2.973038 1.39607,-3.439583 0.0344,-0.218281 0.42497,-1.4804072 0.8679,-2.8047235 0.44293,-1.324319 0.92975,-3.0809089 1.08182,-3.9035356 0.15207,-0.8226266 0.40917,-1.7435883 0.57133,-2.0465812 0.16215,-0.3029929 0.23473,-0.610997 0.16127,-0.6844506 -0.0734,-0.073454 0.0273,-0.5894705 0.22391,-1.14670685 0.19661,-0.55723368 0.42945,-1.40967356 0.51744,-1.89430825 0.24838,-1.3681366 0.66343,-3.9457974 0.82351,-5.1144858 0.0797,-0.5820834 0.23286,-1.3559896 0.3403,-1.7197917 0.10743,-0.3638021 0.17753,-1.0186459 0.15578,-1.4552084 -0.0217,-0.4365625 0.0592,-1.4485941 0.17986,-2.2489581 0.12067,-0.800365 0.2793,-1.931459 0.35251,-2.513542 0.0732,-0.582083 0.19732,-1.35599 0.27578,-1.719792 0.0785,-0.363802 0.19876,-1.018645 0.26731,-1.455208 0.0685,-0.436563 0.21996,-1.27 0.33645,-1.852083 0.37656,-1.881545 0.18493,-7.262107 -0.3204,-8.995834 -0.38742,-1.329214 -1.85354,-4.730422 -2.8274,-6.559201 -0.13876,-0.26058 -0.1817,-0.588002 -0.0954,-0.727604 0.0863,-0.139599 0.0308,-0.25382 -0.12332,-0.25382 -0.15411,0 -0.26181,-0.0893 -0.23934,-0.198437 0.0225,-0.109141 -0.143,-0.615157 -0.36773,-1.12448 -0.37102,-0.840883 -1.48951,-4.229983 -2.052,-6.217708 -0.12354,-0.436563 -0.60114,-2.401094 -1.06134,-4.365625 -0.46019,-1.964531 -0.9094,-3.750469 -0.99824,-3.96875 -0.0888,-0.218281 -0.17872,-0.515938 -0.19974,-0.661459 -0.021,-0.14552 -0.14152,-0.740833 -0.26777,-1.322916 -0.12625,-0.582084 -0.23674,-1.117865 -0.24553,-1.190625 -0.009,-0.07276 -0.0973,-0.259697 -0.19657,-0.415415 -0.0993,-0.155717 -0.23433,-0.579559 -0.30003,-0.941869 -0.0657,-0.362309 -0.43614,-1.54459 -0.82321,-2.627294 -0.38707,-1.082701 -0.72924,-2.08761 -0.76038,-2.233131 -0.0311,-0.14552 -0.381291,-0.845126 -0.778097,-1.554678 -0.396809,-0.709554 -0.721564,-1.364398 -0.721678,-1.455208 -2.64e-4,-0.265073 -3.509158,-4.084119 -4.93372,-5.369912 -0.269517,-0.243266 -1.080516,-1.106469 -1.80222,-1.91823 -0.721704,-0.811762 -1.393351,-1.47593 -1.492554,-1.47593 -0.0992,0 -0.937466,-0.752372 -1.862812,-1.671939 -0.925346,-0.919568 -2.184458,-2.034821 -2.79803,-2.478342 -0.613569,-0.443521 -1.060053,-0.881771 -0.992187,-0.973894 0.06787,-0.09212 0.05306,-0.116996 -0.03291,-0.05528 -0.08597,0.06171 -0.678902,-0.286692 -1.317625,-0.774243 -0.638723,-0.487547 -1.431586,-0.971893 -1.761921,-1.076322 -0.330333,-0.104429 -0.957792,-0.45048 -1.394354,-0.769002 -0.436563,-0.318522 -1.984376,-1.152085 -3.439584,-1.852363 -3.298322,-1.587224 -3.580635,-1.707191 -4.233333,-1.798927 -0.291042,-0.0409 -0.64823,-0.145644 -0.79375,-0.232754 -0.29473,-0.176426 -3.144142,-1.016491 -3.968751,-1.170069 -0.291041,-0.0542 -1.064947,-0.218949 -1.719791,-0.366098 -0.654844,-0.147149 -1.488282,-0.326248 -1.852084,-0.397997 -3.194926,-0.630103 -5.723477,-1.576134 -9.871427,-3.693286 -1.534951,-0.783453 -2.877934,-1.346513 -2.984407,-1.251244 -0.106474,0.09527 -0.110419,0.0284 -0.0088,-0.148601 0.199366,-0.34715 -2.870383,-2.08351 -3.476959,-1.966692 -0.183848,0.03541 -0.402063,-0.112286 -0.484917,-0.328205 -0.0879,-0.229063 -0.324911,-0.325709 -0.569029,-0.232032 -0.252844,0.09703 -0.3511,0.05168 -0.248333,-0.114598 0.10387,-0.168065 -0.574281,-0.451935 -1.742535,-0.729412 -1.051931,-0.249847 -2.746031,-0.842164 -3.764677,-1.316259 -1.964613,-0.914364 -3.227893,-1.329903 -3.770313,-1.240194 -0.181901,0.03008 -0.330729,-0.04677 -0.330729,-0.170783 0,-0.124014 -1.09723,-0.257132 -2.438289,-0.295818 -1.341059,-0.03869 -2.553372,-0.141464 -2.694032,-0.228396 -0.140658,-0.08693 -0.561475,-0.183107 -0.935149,-0.213722 -0.373671,-0.03061 -1.453311,-0.182441 -2.399197,-0.337391 -2.93493,-0.480785 -3.876585,-0.592067 -5.201333,-0.61468 -0.704527,-0.01203 -1.459552,-0.112127 -1.677834,-0.222446 -0.218281,-0.110319 -1.706562,-0.2798 -3.307291,-0.376624 -1.60073,-0.09682 -4.636824,-0.334361 -6.746876,-0.527861 -10.0243693,-0.91929 -17.8150998,0.2994 -25.079527,3.923149 -4.876919,2.432775 -7.328768,3.905836 -7.018136,4.216467 0.08735,0.08735 -0.05174,0.239615 -0.309078,0.338366 -1.167914,0.448171 -5.428677,5.294006 -5.428677,6.174123 0,0.126099 -0.136784,0.274865 -0.303963,0.330592 -0.167183,0.05573 -0.325927,0.470461 -0.352767,0.921632 -0.04566,0.767548 0.0096,0.82031 0.859589,0.82031 0.499616,0 1.03936,0.130969 1.199433,0.291042 0.160073,0.160073 0.437568,0.291042 0.616654,0.291042 0.615728,0 2.137495,1.191559 2.469219,1.933424 0.182679,0.408539 0.289369,0.771996 0.237093,0.807682 -1.174343,0.801656 -1.702115,0.938878 -3.897686,1.013403 -1.327854,0.04507 -2.41446,0.160781 -2.414677,0.25713 -2.17e-4,0.09635 -0.484045,0.256894 -1.075174,0.356764 -0.837087,0.141425 -1.132846,0.33674 -1.337329,0.883153 -0.768382,2.053232 -1.148554,2.643012 -1.924206,2.985135 -0.800484,0.353073 -0.850278,0.334311 -1.815248,-0.683977 -0.545703,-0.575858 -0.992188,-1.142585 -0.992188,-1.259396 0,-0.116813 -0.208359,-0.102322 -0.463021,0.0322 -0.254661,0.13452 -0.879739,0.418844 -1.389062,0.631828 -3.104637,1.298271 -4.485791,1.9563 -5.423959,2.584154 -0.582083,0.389551 -1.475052,0.93759 -1.984375,1.217863 -1.668013,0.91789 -7.223371,4.654257 -9.790322,6.584681 -2.342165,1.761376 -4.203181,3.564305 -6.2831,6.086988 -0.923536,1.120135 -3.754252,4.526264 -5.510046,6.630099 -0.593042,0.710599 -1.303504,1.649185 -1.578803,2.085747 -0.2753,0.436563 -0.742584,1.038918 -1.038408,1.33857 -0.833535,0.844317 -1.539819,1.730851 -2.521566,3.165091 -0.495887,0.724445 -1.651401,2.30279 -2.567809,3.507433 -0.916408,1.204643 -1.666197,2.305971 -1.666197,2.447396 0,0.141425 -0.111039,0.257135 -0.246753,0.257135 -0.135715,0 -0.322881,0.239853 -0.415925,0.533009 -0.09304,0.293155 -0.258646,0.47771 -0.368005,0.410122 -0.109359,-0.06759 -0.547271,0.464101 -0.973138,1.181532 -0.425867,0.717431 -0.876339,1.306782 -1.001049,1.309671 -0.12471,0.0029 -0.161993,0.17399 -0.08285,0.380228 0.07914,0.206237 -0.02718,0.440626 -0.236276,0.520864 -0.209093,0.08024 -0.380169,0.332404 -0.380169,0.560371 0,0.227968 -0.182575,0.693135 -0.405723,1.033701 -0.223148,0.340566 -0.454835,0.874226 -0.514859,1.185908 -0.06003,0.311681 -0.280587,0.738145 -0.490138,0.947695 -0.350215,0.350216 -1.76428,4.312113 -1.76428,4.943123 0,0.15045 -0.225037,0.589584 -0.500083,0.975849 -0.275046,0.386266 -0.517309,0.821365 -0.538364,0.966886 -0.05174,0.357629 -0.574532,2.284965 -0.753566,2.778125 -0.07924,0.218281 -0.127873,0.478083 -0.108066,0.577339 0.01981,0.09926 -0.124418,0.575506 -0.3205,1.058334 -0.196083,0.482827 -0.297938,1.040466 -0.226344,1.239197 0.07159,0.198731 -0.0064,0.445746 -0.17336,0.548923 -0.166942,0.103174 -0.355143,0.53589 -0.418225,0.961586 -0.06308,0.425698 -0.423039,1.845559 -0.799907,3.155246 -0.613159,2.130846 -1.18982,4.71723 -1.25357,5.622396 -0.01281,0.181901 -0.152277,0.3325521 -0.309925,0.3347799 -0.157647,0.00223 -0.108038,0.1194673 0.110244,0.2605326 0.326781,0.2111824 0.330675,0.2571961 0.02205,0.2605325 -0.206154,0.00212 -0.303052,0.075824 -0.215329,0.1635469 0.08772,0.087725 0.04051,0.4724453 -0.104908,0.8549349 -0.30848,0.8113634 -0.896435,4.2054569 -1.14809,6.62758509 -0.188871,1.81784628 -0.217915,10.92526511 -0.03768,11.81552711 0.06011,0.296908 0.194534,2.916283 0.298721,5.820834 0.104188,2.904548 0.227712,5.347305 0.274499,5.428345 0.04679,0.08104 0.165446,1.569323 0.263688,3.307291 0.09824,1.737972 0.229277,3.245626 0.29119,3.350343 0.06191,0.104719 0.171064,0.75797 0.242557,1.451668 0.07149,0.693698 0.312428,1.858174 0.535412,2.587725 0.222984,0.729554 0.448621,1.629564 0.501416,2.000023 0.0528,0.370459 0.533336,1.799209 1.06787,3.175 0.534533,1.375791 1.156824,3.037218 1.382868,3.692062 0.226043,0.654844 0.776906,1.964531 1.224139,2.910417 0.447234,0.945885 0.827573,1.838854 0.8452,1.984375 0.01763,0.14552 0.06507,0.35388 0.105422,0.46302 0.04035,0.109141 0.09425,0.287735 0.119764,0.396875 0.02551,0.109141 0.314789,0.79375 0.642832,1.521355 0.328043,0.727604 0.692499,1.561041 0.809904,1.852083 0.117404,0.291042 0.429812,1.005417 0.694238,1.5875 0.264427,0.582083 0.452276,1.215993 0.417443,1.408692 -0.03483,0.192696 0.06061,0.499697 0.212091,0.682223 0.151483,0.182528 0.314152,0.560647 0.361486,0.840266 0.04733,0.279623 0.271119,0.86559 0.4973,1.302152 0.226182,0.436563 0.496661,1.150938 0.601066,1.5875 0.104404,0.436563 0.371378,1.210469 0.593275,1.719792 0.221897,0.509323 0.496267,1.164167 0.609712,1.455209 1.466343,3.76188 5.554395,11.799152 7.363038,14.476023 1.848381,2.735686 7.941468,9.122019 10.103829,10.590104 0.509323,0.345792 1.283229,0.964486 1.719791,1.374873 0.436563,0.41039 1.27,1.058424 1.852084,1.44008 0.582083,0.381656 1.312397,0.932045 1.622917,1.223087 0.31052,0.291041 1.479262,1.18401 2.5972,1.984375 1.117939,0.800364 2.887938,2.149644 3.933333,2.998401 1.045393,0.848757 2.366161,1.920319 2.935037,2.38125 0.568875,0.460931 1.358209,1.135713 1.754076,1.499515 2.082959,1.914242 5.238271,4.094682 7.310901,5.052102 1.284864,0.59353 3.348151,1.58578 4.585078,2.20499 1.236927,0.61922 3.141927,1.38856 4.233334,1.70965 1.091406,0.32108 2.162969,0.65682 2.38125,0.74607 0.218281,0.0892 0.707027,0.18487 1.086101,0.21248 0.379074,0.0276 0.82413,0.13358 0.98901,0.23548 1.136542,0.70242 3.709162,0.99685 9.566556,1.09485 7.0011052,0.11713 12.76257416,0.36042 12.94895195,0.5468 0.0684715,0.0685 1.91570245,0.0735 4.10495765,0.0112 3.1738544,-0.0903 4.5248884,-0.254 6.6670764,-0.80774 z M -30.030437,63.487049 c -0.474924,-0.347318 -1.247534,-0.833456 -1.716913,-1.080304 -0.734017,-0.386025 -0.826558,-0.544184 -0.661458,-1.130506 0.105577,-0.374931 0.138062,-1.931848 0.07219,-3.459817 -0.229833,-5.331462 -0.06208,-13.622827 0.358664,-17.727083 0.06713,-0.654844 0.198221,-2.495751 0.291309,-4.090908 0.09309,-1.595155 0.214299,-2.973174 0.269359,-3.062261 0.374399,-0.60579 0.571093,-23.7256248 0.242668,-28.523796 -0.07582,-1.1077946 -0.294902,-1.9308578 -0.644692,-2.4220938 -0.291412,-0.4092469 -0.529838,-0.8745352 -0.529838,-1.03397316 0,-0.15943791 -0.09922,-0.28988544 -0.220486,-0.28988544 -0.518176,0 -0.433022,-3.7545778 0.108921,-4.8025818 0.541155,-1.04648 0.76422,-3.703156 0.293675,-3.4976039 -0.524767,0.229235 -2.698189,3.2136769 -2.659378,3.6517343 0.01995,0.2251816 -0.06077,0.3494431 -0.17939,0.2761377 -0.209804,-0.129667 -0.67193,0.8775356 -0.574524,1.252175 0.05781,0.2223479 -1.439471,0.5005494 -2.192777,0.4074266 -0.291042,-0.035978 -0.989166,-0.7002119 -1.551384,-1.4760787 l -1.022218,-1.4106631 0.493051,-0.9222846 c 0.271177,-0.5072592 0.70141,-1.1474027 0.956072,-1.4225455 0.254661,-0.2751402 0.463021,-0.6623976 0.463021,-0.8605706 0,-0.1981729 0.393896,-0.8282278 0.875321,-1.4001247 0.481428,-0.5718973 1.157867,-1.5160623 1.503198,-2.0981463 0.345332,-0.582083 1.028976,-1.534583 1.519209,-2.116666 1.066406,-1.266209 1.006626,-1.184011 2.309011,-3.175 0.834189,-1.275247 4.279368,-5.65204 4.894252,-6.217709 0.07909,-0.07276 0.619387,-0.727604 1.200658,-1.455208 1.339995,-1.677329 1.724903,-2.125041 5.441561,-6.329381 1.682358,-1.903111 3.408765,-3.950645 3.836458,-4.550072 0.427694,-0.599429 1.313405,-1.778206 1.968249,-2.619504 1.571633,-2.019126 3.703315,-4.90787 5.0724756,-6.87396 0.6080337,-0.873125 1.2139189,-1.660343 1.3464117,-1.749372 0.1324901,-0.08903 0.2134261,-0.250328 0.1798558,-0.358437 -0.059962,-0.193095 0.4146259,-0.975153 0.9482773,-1.562631 0.1490371,-0.164071 0.6554497,-0.893623 1.1253603,-1.621227 0.4699106,-0.727604 1.0257208,-1.561042 1.2351332,-1.852083 0.2094124,-0.291042 0.7150312,-1.023157 1.1235981,-1.62692 0.4085643,-0.603766 1.8658471,-2.360301 3.23840225,-3.903414 3.23714545,-3.639402 3.48712115,-4.027663 3.40593105,-5.290027 -0.059978,-0.932534 0.021273,-1.078298 0.8525669,-1.529405 0.866783,-0.470371 1.4532267,-0.492964 3.0986467,-0.119383 0.7260352,0.164841 2.4378629,1.440395 2.4841915,1.851073 0.018574,0.164629 0.061971,0.56978 0.096441,0.900335 0.03447,0.330554 0.275852,0.83657 0.5364057,1.124479 0.2605529,0.287909 0.3857459,0.52347 0.2782039,0.52347 -0.2523832,0 1.100524,1.706727 2.478257,3.126388 0.591164,0.609153 1.074843,1.237157 1.074843,1.395566 0,0.158409 0.267891,0.524531 0.595313,0.813607 0.327421,0.289073 0.424283,0.43624 0.215249,0.327033 -0.209034,-0.109204 0.505341,0.637646 1.5875,1.659668 2.713892,2.563077 3.845375,3.525655 4.144298,3.525655 0.140137,0 0.467752,0.235318 0.728036,0.522928 0.260284,0.28761 0.558173,0.470437 0.661977,0.406283 0.103804,-0.06416 0.526886,0.236308 0.940183,0.667697 0.413295,0.431388 0.914792,0.784342 1.114436,0.784342 0.199644,0 0.289404,0.119062 0.199467,0.264583 -0.08994,0.145521 -0.01659,0.264584 0.162965,0.264584 0.27178,0 3.89477,3.570112 4.895453,4.824005 0.415689,0.520874 3.493894,4.701635 4.02594,5.467958 0.242353,0.349068 0.950711,1.275099 1.57413,2.057842 0.623417,0.782744 1.267609,1.717532 1.431531,2.077307 0.163925,0.359776 0.383691,0.654138 0.488371,0.654138 0.104679,0 0.704982,0.684609 1.334005,1.521354 0.629023,0.836745 1.268407,1.659771 1.42085,1.828946 0.152445,0.169174 0.841309,1.002612 1.530813,1.852083 0.689501,0.849471 1.934461,2.139804 2.766576,2.867409 2.252567,1.969651 6.287394,5.836875 6.375572,6.110734 0.133085,0.413332 2.001208,2.223641 2.294655,2.223641 0.41402,0 2.276046,1.673214 2.36429,2.124551 0.04183,0.213945 0.165491,0.709941 0.274799,1.102217 0.2326,0.834737 -0.240123,1.627296 -1.042033,1.7470439 -0.291041,0.043461 -0.808543,0.123534 -1.150003,0.1779402 -0.341458,0.054406 -1.19243,-0.1548077 -1.891044,-0.4649201 -1.169119,-0.51897 -1.351338,-0.733177 -2.289582,-2.691485 -0.786231,-1.641028 -1.510858,-2.626868 -3.168325,-4.310452 -1.843352,-1.872392 -2.745838,-2.550141 -2.745838,-2.062061 0,0.06641 -0.361672,1.859893 -0.803714,3.985514 -0.720545,3.46484 -0.800814,4.321632 -0.7757,8.2797726 0.02683,4.2272798 0.13231,5.4660695 0.792745,9.309796 0.315679,1.8372429 0.532397,3.529084 0.643953,5.0270834 0.03793,0.509323 0.09524,0.9260417 0.127349,0.9260417 0.210008,0 0.362927,9.5735643 0.158211,9.9048013 -0.496843,0.803908 -0.118804,16.364366 0.482515,19.860824 0.08759,0.509323 0.225361,1.699948 0.306152,2.645834 0.200536,2.347841 0.30344,3.278057 0.812223,7.342187 0.07742,0.618464 0.272383,1.124479 0.433242,1.124479 0.160859,0 0.223253,0.06921 0.138658,0.153811 -0.0846,0.0846 0.133683,0.577461 0.485068,1.095256 0.351386,0.517794 0.638882,1.146897 0.638882,1.398008 0,0.731358 -1.060384,1.87706 -2.228162,2.407438 -1.168501,0.530707 -3.194757,0.666941 -3.463047,0.232839 -0.0914,-0.147894 -0.277024,-0.200401 -0.412491,-0.116676 -0.135464,0.08372 -0.2463,0.036 -0.2463,-0.106053 0,-0.14205 -0.568691,-0.380236 -1.263756,-0.529302 -1.03382,-0.221713 -1.67168,-0.172365 -3.50573,0.271227 -1.233085,0.298239 -2.658692,0.568579 -3.168015,0.600758 -1.504966,0.09508 -1.62788,0.134138 -1.429943,0.454409 0.114506,0.185274 0.07283,0.233799 -0.105913,0.123327 -0.436216,-0.269594 -1.37456,0.414332 -1.37456,1.001866 0,0.280292 -0.07721,0.432411 -0.171577,0.338042 -0.09437,-0.09437 -0.362257,0.03462 -0.595313,0.286634 -0.251817,0.272304 -0.919194,0.493493 -1.644925,0.545174 -1.271429,0.09054 -1.203217,0.135615 -2.546244,-1.682398 -0.553609,-0.749406 -1.108549,-1.953699 -1.221804,-2.651485 -0.06964,-0.429091 -0.150514,-0.839698 -0.179713,-0.912458 -0.0292,-0.07276 -0.04215,-0.212122 -0.02877,-0.309692 0.01339,-0.09757 -0.201535,-0.833861 -0.477581,-1.636205 -0.458541,-1.332772 -0.774528,-4.325702 -0.814149,-7.711395 -0.02363,-2.018993 0.235072,-7.803478 0.402733,-9.005115 0.144494,-1.035592 0.124926,-1.069446 -0.652473,-1.128681 -0.440788,-0.03359 -0.801434,0.04686 -0.801434,0.178771 0,0.131911 -0.386953,0.301723 -0.859896,0.37736 -1.471342,0.235307 -3.661124,1.129403 -3.859056,1.575668 -0.04881,0.110048 -0.194141,0.134948 -0.322958,0.05533 -0.128818,-0.07961 -0.593654,0.04112 -1.032963,0.268298 -0.439311,0.227177 -0.829762,0.40295 -0.867667,0.390607 -0.0379,-0.01233 -0.247512,0.03554 -0.465793,0.1064 -0.218282,0.07086 -0.992188,0.302064 -1.719792,0.513781 -3.0686055,0.892908 -3.5718747,1.075269 -3.5718747,1.294273 0,0.126796 0.1785937,0.299071 0.396875,0.382833 0.5826495,0.223586 0.4836557,0.822693 -0.1984375,1.200918 -0.3274219,0.181557 -0.6795321,0.306501 -0.7824656,0.277653 -0.4188619,-0.117387 -0.5181071,1.977369 -0.2262743,4.77592 0.342273,3.282249 0.5155486,11.316274 0.2404004,11.146224 -0.1879441,-0.116155 -0.063809,0.571124 0.3510069,1.943404 0.1429623,0.472943 0.3558752,0.859896 0.4731385,0.859896 0.1990963,0 0.5780881,0.857666 0.6430381,1.455208 0.015822,0.145521 0.2371196,0.420164 0.491781,0.610315 0.6127856,0.45756 0.5865416,1.024752 -0.063513,1.37265 -0.2895918,0.154988 -0.4979512,0.427067 -0.4630209,0.604623 0.035872,0.182338 -0.1492673,0.286407 -0.4254262,0.239134 -0.2689172,-0.04603 -0.6856359,0.08954 -0.9260417,0.301281 -0.5865098,0.516572 -2.1568939,0.846605 -2.1568939,0.453297 0,-0.163462 -0.1488282,-0.273206 -0.3307292,-0.243877 C 3.9371777,62.412939 3.1556382,62.090192 2.2814072,61.485352 1.9011798,61.22229 1.495137,61.092835 1.3790934,61.197678 1.2630471,61.30252 1.2500561,61.245444 1.350222,61.070842 1.5650161,60.696441 0.80897711,60.238154 -0.25177985,60.099763 -0.66111144,60.04636 -1.2061558,59.914058 -1.4629921,59.805761 c -0.2568364,-0.108297 -0.7032043,-0.135131 -0.9919256,-0.05963 -0.2887213,0.0755 -0.5840095,0.04171 -0.6561984,-0.07509 -0.072186,-0.1168 -0.7727025,-0.220025 -1.5567026,-0.229391 -0.7840001,-0.0094 -1.5287308,-0.03578 -1.6549529,-0.05871 -0.1262221,-0.02291 -0.6234774,-0.02759 -1.1050085,-0.01035 -0.6068166,0.02172 -0.8240951,0.132832 -0.7079827,0.362062 0.092141,0.181901 -0.0082,0.115604 -0.2229856,-0.147328 -0.3645059,-0.44622 -0.4908894,-0.451843 -1.8977766,-0.08446 -0.828995,0.216482 -1.693656,0.322077 -1.921471,0.234656 -0.227811,-0.08742 -0.346511,-0.04942 -0.263776,0.08445 0.08274,0.133871 -0.344215,0.251706 -0.948783,0.261855 -1.921703,0.03227 -5.57013,0.486627 -6.655464,0.82885 -0.599332,0.188976 -1.04254,0.257096 -2.891253,0.444363 -1.349637,0.136712 -4.734653,1.663586 -4.506503,2.03274 0.117864,0.190709 -0.576532,0.524164 -1.396036,0.670386 -0.17992,0.0321 -0.715701,-0.225804 -1.190626,-0.573125 z m 7.074001,-6.324938 c 1.455209,-0.213779 2.94349,-0.454695 3.307292,-0.535372 0.753486,-0.167095 3.986096,-0.595796 5.953125,-0.78949 0.727604,-0.07165 2.156354,-0.239416 3.175,-0.372819 2.4770904,-0.3244 5.8024003,-0.179123 8.8635423,0.387234 1.38244792,0.255772 2.8707292,0.475056 3.3072917,0.487296 0.7917604,0.0222 0.7935331,0.01889 0.7070673,-1.324345 C 2.309207,54.273985 2.234994,51.356954 2.1919648,48.532323 2.1489383,45.707692 2.0234834,42.444131 1.9131786,41.279964 1.8028765,40.115797 1.7145109,38.716813 1.7168128,38.17111 c 0.00238,-0.545703 -0.1209701,-0.992188 -0.273939,-0.992188 -0.1529715,0 -0.2097008,-0.06843 -0.1260687,-0.152061 0.083635,-0.08363 -0.056756,-0.887304 -0.3119755,-1.785938 -0.46062634,-1.621866 -0.45830594,-2.436111 0.00614,-2.149075 0.1330907,0.08225 0.2419852,0.04023 0.2419852,-0.09339 0,-0.13362 0.9728148,-0.266393 2.1618126,-0.29505 1.1889979,-0.02866 2.3498573,-0.148529 2.5796876,-0.26638 0.2298303,-0.117853 1.0727188,-0.296881 1.8730834,-0.397841 0.8003646,-0.100959 1.6933334,-0.33547 1.984375,-0.521133 0.2910426,-0.185664 0.7672926,-0.404932 1.0583336,-0.487262 0.826601,-0.233829 4.757166,-1.701615 5.73449,-2.141424 1.043395,-0.469543 2.335202,-0.852385 3.790511,-1.12336 0.582083,-0.108381 1.236927,-0.25281 1.455208,-0.32095 0.218281,-0.06814 1.08403,-0.117507 1.923886,-0.109705 1.399699,0.01299 1.638789,0.107771 2.867679,1.136656 1.329242,1.112906 1.339151,1.132591 1.162616,2.309807 -0.09793,0.653034 -0.403712,1.496333 -0.679522,1.873994 -0.316648,0.433585 -0.555921,1.330719 -0.649218,2.434187 -0.08126,0.961142 -0.220806,2.568485 -0.310095,3.571875 -0.3649,4.1005 -0.338365,9.666248 0.05052,10.596984 0.21213,0.507698 0.254341,0.827939 0.09625,0.730234 -0.183914,-0.113665 -0.17698,0.02141 0.02,0.389456 0.210997,0.394256 0.477171,0.525113 0.886293,0.435729 0.321599,-0.07026 1.71582,-0.322077 3.098268,-0.559583 1.382448,-0.237509 2.930261,-0.671653 3.439584,-0.964766 0.509323,-0.293114 1.759479,-0.636104 2.778125,-0.762199 1.018646,-0.126092 2.12579,-0.373139 2.460318,-0.548989 0.541552,-0.284676 0.59046,-0.451853 0.446117,-1.524876 -0.233418,-1.735156 -0.65953,-6.937261 -0.77056,-9.407229 -0.204853,-4.557146 -0.465441,-8.464772 -0.576474,-8.644424 -0.188304,-0.304681 -0.144936,-6.90036 0.06822,-10.375498 C 38.642038,10.860206 38.397359,6.4932293 37.185297,-0.12732841 36.965198,-1.3295607 36.504657,-10.874137 36.427935,-15.823428 c -0.0306,-1.974146 1.65099,-6.052825 2.566027,-6.223852 0.996334,-0.186224 0.963872,-0.556186 -0.146214,-1.666269 -1.43012,-1.430123 -4.100012,-4.603126 -5.157499,-6.12938 -2.05513,-2.96613 -4.685115,-6.519061 -4.944076,-6.679105 -0.156768,-0.09689 -0.678518,-0.791279 -1.159443,-1.543084 -1.019033,-1.592967 -6.368016,-7.041378 -6.912904,-7.041378 -0.203986,0 -0.581211,-0.208359 -0.838272,-0.463021 -0.650539,-0.644458 -2.005819,-1.5187 -2.244593,-1.4479 -0.10914,0.03236 -0.198437,-0.05367 -0.198437,-0.191177 0,-0.281618 -2.090254,-2.297894 -3.02419,-2.917159 -0.335688,-0.222586 -1.269315,-1.178607 -2.074723,-2.124493 -2.9975094,-3.520321 -2.8075544,-3.3401 -3.080951,-2.92305 -0.1385385,0.211333 -0.1931856,0.479223 -0.1214385,0.595312 0.071747,0.116089 -0.1147022,0.211071 -0.4143322,0.211071 -0.2996301,0 -0.5447824,0.114269 -0.5447824,0.253932 0,0.139663 -0.356952,0.228959 -0.7932235,0.198437 -0.7354015,-0.05145 -0.9197711,-0.234606 -0.8163243,-0.810948 0.022331,-0.124457 -0.095946,-0.390832 -0.2628529,-0.591944 -0.1669072,-0.20111 -0.2399189,-0.531257 -0.1622505,-0.733658 0.077668,-0.202401 0.019553,-0.489678 -0.1291696,-0.638389 -0.1841262,-0.184126 -0.6986958,0.206528 -1.6129397,1.224528 -0.7384045,0.822206 -1.5896908,1.756135 -1.8917497,2.0754 -1.2650868,1.337149 -1.47524003,1.590106 -1.47524003,1.775717 0,0.107325 -0.14882813,0.36033 -0.33072917,0.562231 -0.70587396,0.783482 -2.1965974,2.801523 -2.7062987,3.663601 -0.2941664,0.497533 -1.0408629,1.644695 -1.6593264,2.54925 -0.6184636,0.904555 -1.1244792,1.737895 -1.1244792,1.851872 0,0.113974 -0.2931319,0.546891 -0.6514042,0.962035 -0.3582723,0.415147 -1.5429786,1.945437 -2.632681,3.400645 -1.0897024,1.455208 -2.527469,3.360208 -3.195034,4.233333 -0.667565,0.873125 -1.574605,2.06375 -2.015639,2.645834 -0.441036,0.582083 -1.674825,2.010833 -2.741755,3.175 -3.209227,3.501702 -3.344429,3.659769 -4.186791,4.894792 -0.446643,0.654843 -1.091014,1.455457 -1.431935,1.77914 -0.340921,0.323686 -0.632796,0.680873 -0.648608,0.79375 -0.01582,0.112879 -0.757116,1.018307 -1.647346,2.012061 -0.89023,0.993754 -1.657377,1.977477 -1.704769,2.186051 -0.04739,0.208574 -0.196223,0.311211 -0.330729,0.228081 -0.134509,-0.08313 -0.24456,-0.02739 -0.24456,0.123878 0,0.398421 -2.694847,4.518705 -2.955432,4.518705 -0.120762,0 -0.219568,0.235858 -0.219568,0.524127 0,0.332896 0.23218,0.582398 0.636368,0.683845 0.350002,0.08784 0.902613,0.443121 1.228027,0.789508 0.523338,0.5570672 0.580686,0.8523634 0.496649,2.5573014 -0.05225,1.0601299 -0.07099,4.0706358 -0.04163,6.69001085 0.02936,2.61937505 0.08505,8.65005475 0.123754,13.40151075 0.04125,5.063774 0.169421,8.578144 0.309697,8.491932 0.131625,-0.08089 0.157949,-0.01542 0.0585,0.145492 -0.09945,0.160912 -0.239133,2.575528 -0.310407,5.365811 -0.07128,2.790285 -0.192487,5.175012 -0.269359,5.299393 -0.07687,0.12438 -0.140896,1.806053 -0.142274,3.737046 -0.0013,1.930995 -0.107479,3.927618 -0.235778,4.436941 -0.344469,1.367467 -0.561261,5.136354 -0.57072,9.921875 -0.01064,5.383385 0.04527,6.454259 0.346681,6.640544 0.134258,0.08297 0.170244,0.383585 0.07997,0.668026 -0.185036,0.582993 -0.29337,0.586573 4.772824,-0.157673 z M 0.51210666,46.651006 c -0.42884197,-0.428842 -0.4019021,-1.005417 0.0469794,-1.005417 0.48833094,0 1.04673144,0.701418 0.83330794,1.046745 -0.2234751,0.36159 -0.48987612,0.349083 -0.88028736,-0.04133 z M -23.396597,-11.047032 c -0.387606,-0.153376 -0.837864,-0.57104 -1.000569,-0.928137 -0.244623,-0.536895 -0.214236,-0.711168 0.175577,-1.006885 0.259271,-0.196686 0.610309,-0.361397 0.780085,-0.366028 0.169772,-0.0046 0.352491,-0.139845 0.406035,-0.300482 0.07788,-0.233648 1.754819,0.47008 2.281356,0.957371 0.156356,0.144704 -0.756436,1.715948 -0.996852,1.715948 -0.129884,0 -0.394716,0.04659 -0.588518,0.103542 -0.193805,0.05695 -0.669504,-0.02196 -1.057114,-0.175329 z M 12.36544,44.711245 c 0,-0.213715 0.178594,-0.388573 0.396875,-0.388573 0.218282,0 0.396875,0.106326 0.396875,0.236276 0,0.129953 -0.178593,0.304808 -0.396875,0.388572 -0.241752,0.09277 -0.396875,5.29e-4 -0.396875,-0.236275 z m -89.164586,-83.187542 c 0,-0.136932 0.117699,-0.321712 0.261553,-0.410617 0.149982,-0.09269 0.194338,0.01352 0.103984,0.248968 -0.175892,0.458369 -0.365537,0.542234 -0.365537,0.161649 z"
         id="path1497" /></g></g></svg>
